<svg id="Layer_1" data-name="Layer 1" xmlns="http://www.w3.org/2000/svg" viewBox="0 0 378.95024 226.14222"><defs><style>.cls-1{fill-rule:evenodd;}.cls-2{fill:#1d8653;}</style></defs><path class="cls-1" d="M644.34684,497.73638c.12026-6.80154.13-25.05546.13-80.83206,0-63.23389-.05437-82.62634-.21748-84.36622-.435-4.44033-2.30172-8.95315-5.92648-14.33592a18.43322,18.43322,0,0,0-3.13541-3.87849,40.09886,40.09886,0,0,0-5.07466-4.40408,15.1621,15.1621,0,0,0-4.16848-2.39234,23.115,23.115,0,0,1-3.226-1.35928,21.62639,21.62639,0,0,0-3.98723-1.25054,46.6978,46.6978,0,0,0-7.9201-.81557c-.83369.01812-2.15673.10874-2.95417.18123a32.70838,32.70838,0,0,0-5.52776.79745,10.59981,10.59981,0,0,0-1.59489.56184c-.58.27185-1.01493.41684-3.93286,1.43178a13.97281,13.97281,0,0,0-3.71538,1.70363c-.25373.21749-1.178.92432-2.08424,1.5949-.88806.67058-2.28359,1.77613-3.06292,2.483-.79744.70683-24.17713,23.9959-51.94277,51.76154-27.78376,27.76564-51.10908,51.05471-51.85215,51.77966-.74308.70683-4.33159,4.29534-7.97447,7.97446-3.64288,3.661-6.94141,6.95954-7.34013,7.34014-.3806.36247-3.82412,3.78787-7.612,7.612-3.806,3.806-7.10453,7.12265-7.34014,7.322-.23561.21748-1.84862,1.81238-3.55226,3.53414-1.72176,1.73988-3.47977,3.47976-3.89661,3.89661-.435.39872-3.75163,3.7335-7.39451,7.39451s-6.85079,6.887-7.15889,7.14077c-.74308.65245-4.62157,4.73031-6.07147,6.36145a13.0646,13.0646,0,0,0-2.3561,3.46164.16735.16735,0,0,1-.16311.18124c-.09062,0-.19936.145-.25373.3081a10.57292,10.57292,0,0,1-.59809,1.1418,33.34818,33.34818,0,0,0-4.33158,11.853,40.139,40.139,0,0,0,.07249,9.9862c.48935,3.13542,2.37422,8.50006,3.64288,10.31244a7.089,7.089,0,0,1,.54372.92431,4.20277,4.20277,0,0,0,.54371.92432,18.84713,18.84713,0,0,1,.92431,1.64926,11.03521,11.03521,0,0,0,1.08743,1.758,49.80756,49.80756,0,0,0,5.02029,4.89342,9.55938,9.55938,0,0,1,1.03306.94244c1.05118,1.08742,5.14715,3.516,5.90835,3.516a8.72673,8.72673,0,0,1,1.48615.61621c3.371,1.59489,10.693,3.02667,14.13656,2.77294a35.87152,35.87152,0,0,0,12.81351-2.93605c2.35609-.96056,5.58213-2.75482,5.76337-3.20791a.38626.38626,0,0,1,.3081-.145.51676.51676,0,0,0,.39872-.23561,11.97257,11.97257,0,0,1,1.1418-1.03306c1.55865-1.26866,5.74524-5.34652,10.0587-9.78684.39873-.39873,2.02987-2.01174,3.62476-3.58851,1.613-1.55865,3.17166-3.15354,3.47977-3.53414a2.83336,2.83336,0,0,1,.70683-.67058c.16311,0,6.23458-6.07147,6.23458-6.23459a5.732,5.732,0,0,1,.96056-.97868c.50747-.47122,2.2111-2.15673,3.78787-3.75162,1.55865-1.5949,3.081-3.15354,3.38915-3.44352.50747-.48935,6.48832-6.43395,7.50325-7.467.21748-.21749,1.903-1.903,3.75162-3.7335,1.84863-1.84863,3.44352-3.4254,3.53414-3.53414.10874-.09062,1.68551-1.68551,3.53414-3.53414,1.84862-1.8305,3.44352-3.4254,3.53414-3.516.10874-.10874,7.99259-7.97446,17.54382-17.47133,9.55124-9.515,17.70694-17.65256,18.12379-18.10566s1.0693-1.10555,1.4499-1.4499,1.70364-1.63114,2.93606-2.84544c2.73669-2.70044,3.53413-3.18978,4.984-3.18978a5.18851,5.18851,0,0,1,3.82412,1.50427,5.67747,5.67747,0,0,1,1.10555,1.55865c.19936.58.23561,6.05334.23561,29.88612,0,16.03955.01812,31.4629.05437,34.254l.05437,5.07466.45309-1.903a30.05078,30.05078,0,0,1,2.338-6.7058c7.82948-15.58646,28.56309-22.00228,45.36384-14.04593,9.471,4.5036,15.82935,12.93515,17.21906,22.28645" transform="translate(-265.52664 -304.10135)"/><path class="cls-1" d="M446.92761,305.53365a63.64872,63.64872,0,0,0-7.88385,1.99362,24.69777,24.69777,0,0,0-8.42756,4.96592c-.50747.47122-1.468,1.323-2.17485,1.88487-.68871.54372-2.15673,1.92112-3.26229,3.0448-2.84543,2.91793-4.44032,4.51282-6.7058,6.76017-1.08742,1.08743-2.60982,2.60983-3.3529,3.40727-.7612.77933-2.46483,2.50109-3.806,3.806-1.34116,1.323-3.02667,3.00855-3.7335,3.71537-.70683.725-2.30172,2.30173-3.53414,3.516-2.42859,2.37422-4.40408,4.34971-7.95634,7.97447-1.25054,1.26866-2.91793,2.91793-3.69726,3.67912s-2.30172,2.26548-3.3529,3.3529c-1.97549,2.048-3.86036,3.93287-7.12264,7.10453-1.99362,1.97549-3.44352,3.42539-7.52138,7.53949-3.17166,3.20791-4.02348,4.05973-7.177,7.177-1.3774,1.35929-2.99042,2.97231-3.58851,3.57039-.58.59809-2.39234,2.41046-4.02348,4.02348-9.53311,9.49687-12.94038,12.86789-14.44465,14.29967-.85182.79745-1.83051,1.8305-2.193,2.26547a23.724,23.724,0,0,1-1.81238,1.88488c-1.323,1.23241-5.43714,5.34651-6.7783,6.77829a19.83431,19.83431,0,0,1-1.70363,1.63114,56.12086,56.12086,0,0,0-5.09279,5.129,15.9274,15.9274,0,0,1-1.77613,1.77614c-.74307.65245-2.193,2.02986-3.226,3.081-2.68232,2.71857-4.74843,4.8028-7.14077,7.1589-1.1418,1.14179-2.79107,2.77293-3.64289,3.661-.85181.86994-2.44671,2.46483-3.53413,3.53414s-2.64608,2.60982-3.46165,3.44352c-1.92112,1.92112-6.05334,6.07147-7.52137,7.53949-.63433.61621-2.24735,2.22923-3.58851,3.57039-3.081,3.0448-4.47657,4.44033-7.52137,7.52137-4.13222,4.15035-4.63969,4.65781-7.1589,7.12265-1.34116,1.323-2.5917,2.60982-2.77294,2.84543-.18123.25374-1.19617,1.35929-2.26547,2.46484-1.613,1.64926-3.84224,4.51282-3.84224,4.89342a2.52771,2.52771,0,0,1-.36248.61621c-1.19617,1.68551-3.64288,8.9169-4.02348,11.90733a54.7327,54.7327,0,0,0,0,9.75059,38.06147,38.06147,0,0,0,2.22923,7.95635c.39872.90619.94244,2.17485,1.19617,2.82731a14.0331,14.0331,0,0,0,.97868,1.95737,5.888,5.888,0,0,1,.52559.86994,10.8903,10.8903,0,0,0,1.73989,2.24735c5.564,5.999,6.289,6.6333,8.77191,7.81135a23.12376,23.12376,0,0,1,2.02986,1.12368,16.57139,16.57139,0,0,0,2.08424,1.12367c.58.27186,1.21429.54371,1.41365.65246a49.68469,49.68469,0,0,0,4.83905,1.50427,54.56656,54.56656,0,0,0,7.64824.83369,42.78864,42.78864,0,0,0,6.54269-.65245,34.46812,34.46812,0,0,0,6.43394-2.06611c.54372-.27186,1.28679-.65246,1.63114-.81557.34436-.18124,1.30492-.725,2.13861-1.2143a15.06619,15.06619,0,0,1,1.63114-.86994,13.89789,13.89789,0,0,0,2.93606-2.22922c3.86036-3.53414,11.09175-10.62054,15.98518-15.64083.85181-.88807,2.57357-2.60983,3.806-3.806,1.86675-1.84862,5.81774-5.79961,8.17383-8.17383l3.84224-3.84224,3.806-3.806,3.806-3.806c1.79426-1.77613,3.516-3.47977,3.806-3.78787.3081-.30811,1.77613-1.77613,3.26228-3.28041,1.50427-1.48615,3.081-3.081,3.53414-3.55226l3.89661-3.89661c1.70364-1.68551,3.661-3.661,4.34971-4.36784.70683-.70682,2.2836-2.28359,3.516-3.49789,1.23241-1.19617,2.79106-2.73669,3.44351-3.40727s2.338-2.338,3.71538-3.71537,2.9723-2.97231,3.53414-3.57039c.56184-.58,2.30172-2.338,3.89661-3.89661,1.57677-1.55865,3.44352-3.4254,4.16847-4.15035.70683-.74308,2.13861-2.17486,3.18979-3.18979a61.32748,61.32748,0,0,0,4.69406-4.76655,6.38329,6.38329,0,0,1,1.72176-1.34116,3.827,3.827,0,0,1,2.55546-.59809c2.31984.01812,3.44351.81557,4.18659,2.9723.32623.96056.34435,1.77613.34435,19.84555v18.84874l.3806.05437c.41685.05437.68871-.19936,3.76975-3.55226a13.0998,13.0998,0,0,0,1.55864-1.86675,9.9816,9.9816,0,0,1,2.12049-2.17486,58.37522,58.37522,0,0,0,5.09278-5.02029,15.15729,15.15729,0,0,1,2.60983-2.57358,41.44981,41.44981,0,0,0,4.89342-4.87529,7.92175,7.92175,0,0,1,1.86675-1.9755c.83369-.65245,4.63969-4.4222,5.40089-5.34651a17.92508,17.92508,0,0,1,1.5224-1.613c.48934-.435,2.15673-2.08424,3.7335-3.67913s3.04479-3.081,3.26228-3.29853,1.903-1.88487,3.75162-3.7335c4.05973-4.0416,3.08105-3.06292,7.97447-7.92009,2.26547-2.24735,4.83905-4.78468,5.72711-5.6365s2.59171-2.57358,3.78788-3.806c1.19617-1.25054,3.06292-3.06292,4.15034-4.05972a32.35124,32.35124,0,0,0,2.80919-2.89981,11.68434,11.68434,0,0,1,2.12048-2.24735,4.27094,4.27094,0,0,0,.72495-.83369c.34436-.52559.34436-1.19617.34436-32.9853,0-30.21235-.01813-32.58656-.32623-34.43519a38.74747,38.74747,0,0,0-1.17805-5.2559c-.10874-.16311-.63433-1.66739-1.68551-4.67594a31.318,31.318,0,0,0-4.29534-6.66955,44.92539,44.92539,0,0,0-6.19833-5.87211c-.54372-.3806-1.03306-.74307-1.08743-.79744a32.65359,32.65359,0,0,0-5.20153-2.89981c-1.73988-.58-5.72711-1.79425-6.30707-1.92112A35.04255,35.04255,0,0,0,446.92761,305.53365Z" transform="translate(-265.52664 -304.10135)"/><ellipse class="cls-2" cx="345.31589" cy="194.01441" rx="33.49619" ry="31.86418"/></svg>